<svg width="1200" height="800" viewBox="0 0 1200 800" fill="none" xmlns="http://www.w3.org/2000/svg">
<g clip-path="url(#clip0_284_39)">
<rect width="1200" height="800" fill="#D8C1AC"/>
<mask id="mask0_284_39" style="mask-type:alpha" maskUnits="userSpaceOnUse" x="110" y="599" width="537" height="537">
<path d="M110 599H647V1136H110V599Z" fill="#D9D9D9"/>
</mask>
<g mask="url(#mask0_284_39)">
<mask id="mask1_284_39" style="mask-type:alpha" maskUnits="userSpaceOnUse" x="71" y="541" width="615" height="615">
<path d="M71.6429 541.464H685.357V1155.18H71.6429V541.464Z" fill="#D9D9D9"/>
</mask>
<g mask="url(#mask1_284_39)">
<path d="M322.882 1083.79V944.853L202.484 1014.32L146.44 918.43L267.691 848.321L146.866 779.065L202.484 682.96L322.882 752.429V612.851H434.118V752.429L554.516 682.96L610.134 779.065L489.735 848.321L610.56 918.43L554.516 1014.32L434.118 944.853V1083.79H322.882Z" fill="#458A2D"/>
</g>
</g>
<mask id="mask2_284_39" style="mask-type:alpha" maskUnits="userSpaceOnUse" x="-145" y="-169" width="562" height="562">
<path d="M-145 -169H417V393H-145V-169Z" fill="#D9D9D9"/>
</mask>
<g mask="url(#mask2_284_39)">
<mask id="mask3_284_39" style="mask-type:alpha" maskUnits="userSpaceOnUse" x="-145" y="-190" width="562" height="563">
<path d="M-145 -189.071H417V372.929H-145V-189.071Z" fill="#D9D9D9"/>
</mask>
<g mask="url(#mask3_284_39)">
<path d="M136.045 181.692C164.245 181.692 188.199 171.822 207.908 152.083C227.617 132.343 237.472 108.373 237.472 80.1742C237.472 51.9747 227.602 28.0204 207.863 8.31142C188.123 -11.3976 164.153 -21.2521 135.954 -21.2521C107.755 -21.2521 83.8003 -11.3824 64.0912 8.35708C44.3822 28.0969 34.5277 52.0664 34.5277 80.2656C34.5277 108.465 44.3974 132.419 64.1369 152.128C83.8768 171.837 107.846 181.692 136.045 181.692ZM136.034 134.664C120.92 134.664 108.062 129.374 97.46 118.794C86.8573 108.215 81.556 95.368 81.556 80.2544C81.556 65.1406 86.8458 52.2825 97.4254 41.6802C108.005 31.0775 120.852 25.7762 135.965 25.7762C151.079 25.7762 163.937 31.066 174.539 41.6456C185.142 52.2253 190.443 65.0719 190.443 80.1854C190.443 95.2993 185.154 108.157 174.574 118.76C163.994 129.362 151.148 134.664 136.034 134.664ZM136 270.871C75.3767 270.871 20.6402 253.211 -28.2097 217.891C-77.0592 182.57 -113.192 136.68 -136.609 80.2199C-113.192 23.7596 -77.0592 -22.1306 -28.2097 -57.4508C20.6402 -92.7709 75.3767 -110.431 136 -110.431C196.623 -110.431 251.359 -92.7709 300.209 -57.4508C349.059 -22.1306 385.192 23.7596 408.609 80.2199C385.192 136.68 349.059 182.57 300.209 217.891C251.359 253.211 196.623 270.871 136 270.871ZM135.986 216.818C181.885 216.818 224.032 204.394 262.425 179.546C300.819 154.698 330.163 121.589 350.458 80.2199C330.163 38.8505 300.824 5.74184 262.439 -19.106C224.055 -43.9538 181.913 -56.3777 136.013 -56.3777C90.1142 -56.3777 47.9679 -43.9538 9.57429 -19.106C-28.8197 5.74184 -58.294 38.8505 -78.8488 80.2199C-58.294 121.589 -28.8244 154.698 9.56025 179.546C47.9449 204.394 90.0869 216.818 135.986 216.818Z" fill="#3F75C5"/>
</g>
</g>
<mask id="mask4_284_39" style="mask-type:alpha" maskUnits="userSpaceOnUse" x="937" y="421" width="458" height="458">
<rect x="937" y="421" width="458" height="458" fill="#D9D9D9"/>
</mask>
<g mask="url(#mask4_284_39)">
<path d="M1053.57 812.686H1278.57C1285.69 812.686 1291.66 810.247 1296.48 805.37C1301.31 800.493 1304.25 794.45 1305.31 787.241V780.88H1027.01V786.923C1027.86 794.01 1030.7 800.076 1035.55 805.12C1040.4 810.164 1046.4 812.686 1053.57 812.686ZM1164.57 577.325C1148.03 577.325 1133.93 571.387 1122.27 559.513C1110.61 547.639 1105.04 533.433 1105.57 516.894C1106.1 498.023 1112.51 481.58 1124.81 467.566C1137.11 453.553 1150.43 440.363 1164.76 427.998C1178.63 440.932 1191.95 454.317 1204.72 468.152C1217.5 481.987 1224.04 498.235 1224.36 516.894C1224.57 533.433 1218.8 547.639 1207.03 559.513C1195.26 571.387 1181.11 577.325 1164.57 577.325ZM1142.94 739.056H1186.2V638.391H1142.94V739.056ZM1164.69 535.023C1169.38 535.023 1173.5 533.491 1177.05 530.425C1180.6 527.36 1182.38 523.402 1182.38 518.55C1182.38 512.496 1180.53 507.056 1176.84 502.23C1173.15 497.404 1169.16 492.75 1164.89 488.269C1160.73 492.75 1156.85 497.404 1153.26 502.23C1149.67 507.056 1147.87 512.496 1147.87 518.55C1147.87 523.402 1149.5 527.36 1152.77 530.425C1156.03 533.491 1160.01 535.023 1164.69 535.023ZM1326.78 739.056C1332.5 739.056 1337.43 737.068 1341.57 733.092C1345.7 729.117 1347.77 724.266 1347.77 718.541C1347.77 712.816 1345.7 708.019 1341.57 704.149C1337.43 700.279 1332.5 698.344 1326.78 698.344C1321.05 698.344 1316.2 700.279 1312.23 704.149C1308.25 708.019 1306.26 712.816 1306.26 718.541C1306.26 724.266 1308.25 729.117 1312.23 733.092C1316.2 737.068 1321.05 739.056 1326.78 739.056ZM1278.43 854.192H1053.57C1033.13 854.192 1015.91 847.126 1001.9 832.995C987.895 818.863 980.891 801.598 980.891 781.198V739.056H1100.96V596.408H1228.5V739.056H1268.41C1267.14 736.087 1266.16 732.827 1265.47 729.276C1264.78 725.724 1264.44 722.093 1264.44 718.382C1264.44 701.274 1270.53 686.687 1282.73 674.62C1294.92 662.554 1309.66 656.52 1326.95 656.52C1344.01 656.52 1358.71 662.554 1371.07 674.62C1383.42 686.687 1389.59 701.274 1389.59 718.382C1389.59 731.528 1386.01 743.19 1378.86 753.368C1371.7 763.546 1362.56 770.914 1351.43 775.473V781.516C1351.43 801.951 1344.37 819.173 1330.26 833.18C1316.14 847.188 1298.87 854.192 1278.43 854.192Z" fill="#BF211E"/>
</g>
<path d="M913.476 460.091V430.786L989.978 432.02V426.313H969.001C928.899 426.313 909.465 420.298 909.465 407.805C909.465 392.689 930.442 385.286 973.012 385.286H1048.43V412.586H976.096V416.905H1005.56C1038.1 416.905 1053.06 424 1053.06 439.269C1053.06 453.613 1038.1 460.091 1005.09 460.091H913.476Z" fill="url(#paint0_linear_284_39)"/>
<path d="M811.999 462.405C764.802 462.405 749.224 452.38 749.224 421.84C749.224 394.849 769.892 382.355 814.621 382.355C823.721 382.355 832.358 382.818 840.687 383.589V360.916H894.979V460.091H841.613L842.692 436.339L822.95 462.251C820.482 462.405 818.786 462.405 811.999 462.405ZM807.372 422.303H840.687V411.198H807.372V422.303Z" fill="url(#paint1_linear_284_39)"/>
<path d="M682.546 460.091V426.159H655.863V460.091H601.571V385.286H654.937L653.858 409.039L673.6 383.126C680.695 382.51 687.019 382.201 692.571 382.201C725.578 382.201 736.838 391.301 736.838 421.995V460.091H682.546Z" fill="url(#paint2_linear_284_39)"/>
<path d="M530.804 460.091V447.598L510.291 460.091H478.363C449.829 460.091 444.585 454.076 444.585 421.686H530.804V415.825H444.894V385.286H529.108C563.966 385.286 584.634 397.779 584.634 418.91V460.091H530.804ZM503.967 440.503L530.804 439.269V431.866H503.967V440.503Z" fill="url(#paint3_linear_284_39)"/>
<path d="M320.056 460.091V385.286H373.422L372.343 409.038L391.931 385.286H429.102V430.786H374.348V460.091H320.056Z" fill="url(#paint4_linear_284_39)"/>
<path d="M145.706 460.091V361.379H245.961C288.531 361.379 299.636 366.469 299.636 386.057C299.636 401.327 288.685 407.188 257.066 408.576V409.964H260.46C293.775 409.964 303.029 415.208 303.029 433.717C303.029 454.076 291.153 460.091 250.588 460.091H145.706ZM200.615 435.105H242.105V420.298H200.615V435.105ZM200.615 401.944H240.254V389.913H200.615V401.944Z" fill="url(#paint5_linear_284_39)"/>
<path fill-rule="evenodd" clip-rule="evenodd" d="M137.85 490.03L142.773 478.157C144.65 478.935 146.718 479.371 148.92 479.371H261.586V492.224H148.92C144.998 492.224 141.259 491.444 137.85 490.03ZM937.583 492.224V479.371H1050.25C1052.45 479.371 1054.52 478.935 1056.4 478.157L1061.32 490.03C1057.91 491.444 1054.17 492.224 1050.25 492.224H937.583ZM1079.17 384.981H1066.32V358.873C1066.32 356.67 1065.88 354.602 1065.1 352.726L1076.97 347.802C1078.39 351.212 1079.17 354.951 1079.17 358.873V384.981ZM261.586 329.953H148.92C144.998 329.953 141.259 330.733 137.85 332.147L142.773 344.02C144.65 343.242 146.718 342.806 148.92 342.806H261.586V329.953ZM120 437.197H132.853V463.305C132.853 465.507 133.289 467.575 134.067 469.451L122.194 474.375C120.78 470.965 120 467.226 120 463.305V437.197ZM120 384.981H132.853V358.873C132.853 356.67 133.289 354.602 134.067 352.726L122.194 347.802C120.78 351.212 120 354.951 120 358.873V384.981ZM486.918 329.953V342.806H712.251V329.953H486.918ZM937.583 329.953V342.806H1050.25C1052.45 342.806 1054.52 343.242 1056.4 344.02L1061.32 332.147C1057.91 330.733 1054.17 329.953 1050.25 329.953H937.583ZM1079.17 437.197H1066.32V463.305C1066.32 465.507 1065.88 467.575 1065.1 469.451L1076.97 474.375C1078.39 470.965 1079.17 467.226 1079.17 463.305V437.197ZM712.251 492.224V479.371H486.918V492.224H712.251Z" fill="url(#paint6_linear_284_39)"/>
<rect x="405.984" y="293" width="388.809" height="72.2992" fill="#07090F"/>
<path d="M753.117 346.688C744.685 346.688 738.824 341.341 738.824 332.498C738.824 323.655 744.737 318.411 753.22 318.411C760.983 318.411 767.153 323.449 767.153 332.344V333.732H748.336C748.593 338.513 750.495 340.775 753.271 340.775C755.533 340.775 757.179 339.541 757.693 336.765H766.793C765.456 342.883 760.263 346.688 753.117 346.688ZM753.168 324.22C750.649 324.22 749.004 325.968 748.49 329.619H757.898C757.384 325.917 755.739 324.22 753.168 324.22Z" fill="#D8C1AC"/>
<path d="M724.346 346.019V309.362H734.217V346.019H724.346Z" fill="#D8C1AC"/>
<path d="M690.255 346.019V309.362H700.074V323.912C701.771 320.364 704.599 318.462 708.403 318.462C715.19 318.462 719.714 323.603 719.714 332.498C719.714 341.444 715.19 346.585 708.403 346.585C704.753 346.585 701.822 344.837 700.074 341.495V346.019H690.255ZM705.061 340.21C708.249 340.21 710.048 337.691 710.048 332.498C710.048 327.305 708.249 324.889 705.061 324.889C701.822 324.889 700.023 327.305 700.023 332.498C700.023 337.691 701.822 340.21 705.061 340.21Z" fill="#D8C1AC"/>
<path d="M666.225 346.534C660.827 346.534 657.382 343.654 657.382 339.439C657.382 333.423 663.346 331.932 668.282 330.647C671.727 329.773 674.657 329.002 674.657 326.791C674.657 325.506 673.68 324.323 671.418 324.323C669.053 324.323 667.459 325.557 666.945 328.128H657.999C659.079 321.855 664.58 318.411 671.881 318.411C680.158 318.462 684.426 322.164 684.426 328.642V346.019H674.657V342.163C672.858 345.043 669.876 346.534 666.225 346.534ZM666.945 338.41C666.945 340.107 668.385 340.93 670.236 340.93C671.932 340.93 673.577 340.261 674.657 339.182V333.012C673.886 333.578 672.858 333.937 671.881 334.297C669.464 335.171 666.945 335.84 666.945 338.41Z" fill="#D8C1AC"/>
<path d="M644.788 346.019C639.646 346.019 637.281 343.552 637.281 339.027V324.734H630.906V319.079H637.281V312.652H647.101V319.079H654.505V324.734H647.101V337.845C647.101 339.439 647.821 340.055 649.466 340.055H654.505V346.019H644.788Z" fill="#D8C1AC"/>
<path d="M600.935 346.019V319.079H610.806V323.346C612.554 320.21 615.382 318.411 619.186 318.411C624.533 318.411 628.081 321.907 628.081 326.997V346.019H618.158V328.745C618.158 326.328 616.667 324.94 614.508 324.94C612.863 324.94 611.526 325.814 610.806 327.048V346.019H600.935Z" fill="#D8C1AC"/>
<path d="M576.739 346.688C571.392 346.688 567.844 343.192 567.844 338.05V319.079H577.767V336.302C577.767 338.77 579.258 340.158 581.417 340.158C583.011 340.158 584.399 339.233 585.119 337.999V319.079H594.99V346.019H585.119V341.752C583.371 344.888 580.543 346.688 576.739 346.688Z" fill="#D8C1AC"/>
<path d="M548.877 346.739C539.982 346.739 534.378 341.495 534.378 332.498C534.378 323.552 539.982 318.359 548.877 318.359C557.771 318.359 563.375 323.552 563.375 332.498C563.375 341.495 557.771 346.739 548.877 346.739ZM548.877 324.734C545.689 324.734 543.89 327.254 543.89 332.498C543.89 337.742 545.689 340.364 548.877 340.364C552.167 340.364 553.864 337.742 553.864 332.498C553.864 327.254 552.167 324.734 548.877 324.734Z" fill="#D8C1AC"/>
<path d="M517.291 346.739C508.962 346.739 502.998 341.392 502.998 332.549C502.998 323.603 508.808 318.359 517.343 318.359C524.746 318.359 530.196 322.318 531.07 329.876H522.124C521.507 326.328 519.913 324.683 517.497 324.683C514.361 324.683 512.458 327.202 512.458 332.498C512.458 337.793 514.412 340.364 517.497 340.364C520.119 340.364 521.713 338.462 522.227 334.709H531.121C530.504 342.369 524.952 346.739 517.291 346.739Z" fill="#D8C1AC"/>
<path d="M485.911 346.739C477.582 346.739 471.619 341.392 471.619 332.549C471.619 323.603 477.428 318.359 485.963 318.359C493.366 318.359 498.816 322.318 499.69 329.876H490.744C490.127 326.328 488.533 324.683 486.117 324.683C482.981 324.683 481.078 327.202 481.078 332.498C481.078 337.793 483.032 340.364 486.117 340.364C488.739 340.364 490.333 338.462 490.847 334.709H499.741C499.124 342.369 493.572 346.739 485.911 346.739Z" fill="#D8C1AC"/>
<path d="M432.479 346.019L445.743 310.031H457.157L470.37 346.019H459.933L457.671 339.079H444.612L442.299 346.019H432.479ZM446.772 332.704L446.72 332.806H455.615L455.563 332.704L451.193 319.285L446.772 332.704Z" fill="#D8C1AC"/>
</g>
<defs>
<linearGradient id="paint0_linear_284_39" x1="595.028" y1="460.091" x2="604.668" y2="350.839" gradientUnits="userSpaceOnUse">
<stop stop-color="#BF211E"/>
<stop offset="1" stop-color="#D29B31"/>
</linearGradient>
<linearGradient id="paint1_linear_284_39" x1="595.028" y1="460.091" x2="604.668" y2="350.839" gradientUnits="userSpaceOnUse">
<stop stop-color="#BF211E"/>
<stop offset="1" stop-color="#D29B31"/>
</linearGradient>
<linearGradient id="paint2_linear_284_39" x1="595.028" y1="460.091" x2="604.668" y2="350.839" gradientUnits="userSpaceOnUse">
<stop stop-color="#BF211E"/>
<stop offset="1" stop-color="#D29B31"/>
</linearGradient>
<linearGradient id="paint3_linear_284_39" x1="595.028" y1="460.091" x2="604.668" y2="350.839" gradientUnits="userSpaceOnUse">
<stop stop-color="#BF211E"/>
<stop offset="1" stop-color="#D29B31"/>
</linearGradient>
<linearGradient id="paint4_linear_284_39" x1="595.028" y1="460.091" x2="604.668" y2="350.839" gradientUnits="userSpaceOnUse">
<stop stop-color="#BF211E"/>
<stop offset="1" stop-color="#D29B31"/>
</linearGradient>
<linearGradient id="paint5_linear_284_39" x1="595.028" y1="460.091" x2="604.668" y2="350.839" gradientUnits="userSpaceOnUse">
<stop stop-color="#BF211E"/>
<stop offset="1" stop-color="#D29B31"/>
</linearGradient>
<linearGradient id="paint6_linear_284_39" x1="618.864" y1="314.69" x2="520.056" y2="505.078" gradientUnits="userSpaceOnUse">
<stop stop-color="#BF211E"/>
<stop offset="1" stop-color="#D29B31"/>
</linearGradient>
<clipPath id="clip0_284_39">
<rect width="1200" height="800" fill="white"/>
</clipPath>
</defs>
</svg>
